ffmpeg started on 2025-06-05 at 20:43:54
Report written to "D:\Convert\FFMetrics\reports\psnr_report-6.txt"
Log level: 32
Command line:
ffmpeg -hide_banner -nostdin -i "G:\\\xc0\xed\xe8\xec\xe5\\\xce\xed\xe3\xee\xe8\xed\xe3\xe8\\!_36_\xce\xf1\xe5\xed\xfc_2024\\DreamCast\\\xcd\xe5\xe7\xed\xe0\xea\xee\xec\xf6\xfb \xe2 \xe4\xf0\xf3\xe3\xee\xe9 \xe6\xe8\xe7\xed\xe8\\[DC] Raise wa Tanin ga Ii - 04_Telegram_HEVC.mkv" -i "G:\\\xc0\xed\xe8\xec\xe5\\\xce\xed\xe3\xee\xe8\xed\xe3\xe8\\!_36_\xce\xf1\xe5\xed\xfc_2024\\DreamCast\\\xcd\xe5\xe7\xed\xe0\xea\xee\xec\xf6\xfb \xe2 \xe4\xf0\xf3\xe3\xee\xe9 \xe6\xe8\xe7\xed\xe8\\[DC] Raise wa Tanin ga Ii - 04_Telegram.mp4" -lavfi "[0:v]settb=AVTB,setpts=PTS-STARTPTS,format=pix_fmts=yuv420p10,fps=24000/1001,scale=1920:1080:flags=bicubic[main];[1:v]settb=AVTB,setpts=PTS-STARTPTS,format=pix_fmts=yuv420p,fps=24000/1001,scale=1920:1080:flags=bicubic[ref];[main][ref]psnr=eof_action=endall:stats_file='D\\:/Convert/FFMetrics/logs/psnr_logfile-6.txt'" -f null -
Input #0, matroska,webm, from 'G:\Аниме\Онгоинги\!_36_Осень_2024\DreamCast\Незнакомцы в другой жизни\[DC] Raise wa Tanin ga Ii - 04_Telegram_HEVC.mkv':
  Metadata:
    COMPATIBLE_BRANDS: isomiso2avc1mp41
    MAJOR_BRAND     : isom
    MINOR_VERSION   : 512
    ENCODER         : Lavf61.7.100
  Duration: 00:23:46.73, start: -0.021000, bitrate: 834 kb/s
  Stream #0:0: Video: hevc (Main 10), yuv420p10le(tv, bt709, progressive), 1920x1080 [SAR 1:1 DAR 16:9], 23.98 fps, 23.98 tbr, 1k tbn (default)
      Metadata:
        HANDLER_NAME    : VideoHandler
        VENDOR_ID       : [0][0][0][0]
        ENCODER         : Lavc61.19.100 libx265
        BPS             : 637706
        DURATION        : 00:23:46.508708333
        NUMBER_OF_FRAMES: 34202
        NUMBER_OF_BYTES : 113711764
        _STATISTICS_WRITING_APP: mkvpropedit v66.0.0 ('Josie') 64-bit
        _STATISTICS_WRITING_DATE_UTC: 2025-05-31 15:15:21
        _STATISTICS_TAGS: BPS DURATION NUMBER_OF_FRAMES NUMBER_OF_BYTES
  Stream #0:1: Audio: aac (LC), 48000 Hz, stereo, fltp (default)
      Metadata:
        HANDLER_NAME    : SoundHandler
        VENDOR_ID       : [0][0][0][0]
        ENCODER         : Lavc61.19.100 aac
        BPS             : 192986
        DURATION        : 00:23:46.730000000
        NUMBER_OF_FRAMES: 66879
        NUMBER_OF_BYTES : 34417468
        _STATISTICS_WRITING_APP: mkvpropedit v66.0.0 ('Josie') 64-bit
        _STATISTICS_WRITING_DATE_UTC: 2025-05-31 15:15:21
        _STATISTICS_TAGS: BPS DURATION NUMBER_OF_FRAMES NUMBER_OF_BYTES
Input #1, mov,mp4,m4a,3gp,3g2,mj2, from 'G:\Аниме\Онгоинги\!_36_Осень_2024\DreamCast\Незнакомцы в другой жизни\[DC] Raise wa Tanin ga Ii - 04_Telegram.mp4':
  Metadata:
    major_brand     : isom
    minor_version   : 512
    compatible_brands: isomiso2avc1mp41
    encoder         : Lavf61.1.100
  Duration: 00:23:46.68, start: 0.000000, bitrate: 3777 kb/s
  Stream #1:0[0x1](und): Video: h264 (High) (avc1 / 0x31637661), yuv420p(tv, bt709, progressive), 1920x1080 [SAR 1:1 DAR 16:9], 3630 kb/s, 23.98 fps, 23.98 tbr, 24k tbn (default)
      Metadata:
        handler_name    : VideoHandler
        vendor_id       : [0][0][0][0]
        encoder         : Lavc61.3.100 h264_qsv
  Stream #1:1[0x2](und): Audio: aac (HE-AACv2) (mp4a / 0x6134706D), 48000 Hz, stereo, fltp, 144 kb/s (default)
      Metadata:
        handler_name    : SoundHandler
        vendor_id       : [0][0][0][0]
Stream mapping:
  Stream #0:0 (hevc) -> settb:default
  Stream #1:0 (h264) -> settb:default
  psnr:default -> Stream #0:0 (wrapped_avframe)
  Stream #0:1 -> #0:1 (aac (native) -> pcm_s16le (native))
Output #0, null, to 'pipe:':
  Metadata:
    COMPATIBLE_BRANDS: isomiso2avc1mp41
    MAJOR_BRAND     : isom
    MINOR_VERSION   : 512
    encoder         : Lavf61.7.100
  Stream #0:0: Video: wrapped_avframe, yuv420p10le(tv, bt709, progressive), 1920x1080 [SAR 1:1 DAR 16:9], q=2-31, 200 kb/s, 23.98 fps, 23.98 tbn
      Metadata:
        encoder         : Lavc61.19.100 wrapped_avframe
  Stream #0:1: Audio: pcm_s16le, 48000 Hz, stereo, s16, 1536 kb/s (default)
      Metadata:
        HANDLER_NAME    : SoundHandler
        VENDOR_ID       : [0][0][0][0]
        _STATISTICS_TAGS: BPS DURATION NUMBER_OF_FRAMES NUMBER_OF_BYTES
        BPS             : 192986
        DURATION        : 00:23:46.730000000
        NUMBER_OF_FRAMES: 66879
        NUMBER_OF_BYTES : 34417468
        _STATISTICS_WRITING_APP: mkvpropedit v66.0.0 ('Josie') 64-bit
        _STATISTICS_WRITING_DATE_UTC: 2025-05-31 15:15:21
        encoder         : Lavc61.19.100 pcm_s16le
frame=  168 fps=0.0 q=-0.0 size=N/A time=00:00:07.00 bitrate=N/A speed=13.7x    frame=  427 fps=418 q=-0.0 size=N/A time=00:00:17.80 bitrate=N/A speed=17.4x    frame=  655 fps=424 q=-0.0 size=N/A time=00:00:27.31 bitrate=N/A speed=17.7x    frame=  872 fps=425 q=-0.0 size=N/A time=00:00:36.36 bitrate=N/A speed=17.7x    frame= 1116 fps=433 q=-0.0 size=N/A time=00:00:46.54 bitrate=N/A speed=18.1x    frame= 1334 fps=432 q=-0.0 size=N/A time=00:00:55.63 bitrate=N/A speed=  18x    frame= 1588 fps=441 q=-0.0 size=N/A time=00:01:06.23 bitrate=N/A speed=18.4x    frame= 1807 fps=438 q=-0.0 size=N/A time=00:01:15.36 bitrate=N/A speed=18.3x    frame= 2029 fps=438 q=-0.0 size=N/A time=00:01:24.62 bitrate=N/A speed=18.3x    frame= 2268 fps=440 q=-0.0 size=N/A time=00:01:34.59 bitrate=N/A speed=18.3x    frame= 2502 fps=441 q=-0.0 size=N/A time=00:01:44.35 bitrate=N/A speed=18.4x    frame= 2762 fps=447 q=-0.0 size=N/A time=00:01:55.19 bitrate=N/A speed=18.7x    frame= 3039 fps=454 q=-0.0 size=N/A time=00:02:06.75 bitrate=N/A speed=18.9x    frame= 3303 fps=458 q=-0.0 size=N/A time=00:02:17.76 bitrate=N/A speed=19.1x    frame= 3575 fps=462 q=-0.0 size=N/A time=00:02:29.10 bitrate=N/A speed=19.3x    frame= 3841 fps=466 q=-0.0 size=N/A time=00:02:40.20 bitrate=N/A speed=19.4x    frame= 4121 fps=470 q=-0.0 size=N/A time=00:02:51.88 bitrate=N/A speed=19.6x    frame= 4396 fps=474 q=-0.0 size=N/A time=00:03:03.34 bitrate=N/A speed=19.8x    frame= 4645 fps=475 q=-0.0 size=N/A time=00:03:13.73 bitrate=N/A speed=19.8x    frame= 4903 fps=476 q=-0.0 size=N/A time=00:03:24.49 bitrate=N/A speed=19.9x    frame= 5165 fps=477 q=-0.0 size=N/A time=00:03:35.42 bitrate=N/A speed=19.9x    frame= 5427 fps=478 q=-0.0 size=N/A time=00:03:46.35 bitrate=N/A speed=19.9x    frame= 5687 fps=479 q=-0.0 size=N/A time=00:03:57.19 bitrate=N/A speed=  20x    frame= 5955 fps=481 q=-0.0 size=N/A time=00:04:08.37 bitrate=N/A speed=  20x    frame= 6205 fps=481 q=-0.0 size=N/A time=00:04:18.80 bitrate=N/A speed=20.1x    frame= 6477 fps=483 q=-0.0 size=N/A time=00:04:30.14 bitrate=N/A speed=20.1x    frame= 6750 fps=485 q=-0.0 size=N/A time=00:04:41.53 bitrate=N/A speed=20.2x    frame= 7016 fps=486 q=-0.0 size=N/A time=00:04:52.62 bitrate=N/A speed=20.3x    frame= 7289 fps=487 q=-0.0 size=N/A time=00:05:04.01 bitrate=N/A speed=20.3x    frame= 7569 fps=489 q=-0.0 size=N/A time=00:05:15.69 bitrate=N/A speed=20.4x    frame= 7807 fps=488 q=-0.0 size=N/A time=00:05:25.61 bitrate=N/A speed=20.4x    frame= 8061 fps=488 q=-0.0 size=N/A time=00:05:36.21 bitrate=N/A speed=20.4x    frame= 8316 fps=488 q=-0.0 size=N/A time=00:05:46.84 bitrate=N/A speed=20.4x    frame= 8583 fps=489 q=-0.0 size=N/A time=00:05:57.98 bitrate=N/A speed=20.4x    frame= 8856 fps=490 q=-0.0 size=N/A time=00:06:09.36 bitrate=N/A speed=20.4x    frame= 9127 fps=491 q=-0.0 size=N/A time=00:06:20.67 bitrate=N/A speed=20.5x    frame= 9369 fps=491 q=-0.0 size=N/A time=00:06:30.76 bitrate=N/A speed=20.5x    frame= 9622 fps=491 q=-0.0 size=N/A time=00:06:41.31 bitrate=N/A speed=20.5x    frame= 9852 fps=490 q=-0.0 size=N/A time=00:06:50.91 bitrate=N/A speed=20.4x    frame=10092 fps=489 q=-0.0 size=N/A time=00:07:00.92 bitrate=N/A speed=20.4x    frame=10375 fps=490 q=-0.0 size=N/A time=00:07:12.72 bitrate=N/A speed=20.4x    frame=10638 fps=491 q=-0.0 size=N/A time=00:07:23.69 bitrate=N/A speed=20.5x    frame=10901 fps=491 q=-0.0 size=N/A time=00:07:34.66 bitrate=N/A speed=20.5x    frame=11127 fps=490 q=-0.0 size=N/A time=00:07:44.08 bitrate=N/A speed=20.4x    frame=11367 fps=489 q=-0.0 size=N/A time=00:07:54.09 bitrate=N/A speed=20.4x    frame=11588 fps=488 q=-0.0 size=N/A time=00:08:03.31 bitrate=N/A speed=20.3x    frame=11804 fps=487 q=-0.0 size=N/A time=00:08:12.32 bitrate=N/A speed=20.3x    frame=12042 fps=486 q=-0.0 size=N/A time=00:08:22.25 bitrate=N/A speed=20.3x    frame=12292 fps=486 q=-0.0 size=N/A time=00:08:32.67 bitrate=N/A speed=20.3x    frame=12544 fps=486 q=-0.0 size=N/A time=00:08:43.18 bitrate=N/A speed=20.3x    frame=12778 fps=486 q=-0.0 size=N/A time=00:08:52.94 bitrate=N/A speed=20.2x    frame=13008 fps=485 q=-0.0 size=N/A time=00:09:02.54 bitrate=N/A speed=20.2x    frame=13235 fps=484 q=-0.0 size=N/A time=00:09:12.00 bitrate=N/A speed=20.2x    frame=13477 fps=484 q=-0.0 size=N/A time=00:09:22.10 bitrate=N/A speed=20.2x    frame=13721 fps=483 q=-0.0 size=N/A time=00:09:32.28 bitrate=N/A speed=20.2x    frame=13939 fps=482 q=-0.0 size=N/A time=00:09:41.37 bitrate=N/A speed=20.1x    frame=14155 fps=481 q=-0.0 size=N/A time=00:09:50.38 bitrate=N/A speed=20.1x    frame=14405 fps=481 q=-0.0 size=N/A time=00:10:00.80 bitrate=N/A speed=20.1x    frame=14639 fps=481 q=-0.0 size=N/A time=00:10:10.56 bitrate=N/A speed=  20x    frame=14863 fps=480 q=-0.0 size=N/A time=00:10:19.91 bitrate=N/A speed=  20x    frame=15091 fps=479 q=-0.0 size=N/A time=00:10:29.42 bitrate=N/A speed=  20x    frame=15357 fps=480 q=-0.0 size=N/A time=00:10:40.51 bitrate=N/A speed=  20x    frame=15600 fps=480 q=-0.0 size=N/A time=00:10:50.65 bitrate=N/A speed=  20x    frame=15852 fps=480 q=-0.0 size=N/A time=00:11:01.16 bitrate=N/A speed=  20x    frame=16056 fps=479 q=-0.0 size=N/A time=00:11:09.66 bitrate=N/A speed=  20x    frame=16302 fps=479 q=-0.0 size=N/A time=00:11:19.92 bitrate=N/A speed=  20x    frame=16559 fps=479 q=-0.0 size=N/A time=00:11:30.64 bitrate=N/A speed=  20x    frame=16832 fps=480 q=-0.0 size=N/A time=00:11:42.03 bitrate=N/A speed=  20x    frame=17115 fps=481 q=-0.0 size=N/A time=00:11:53.83 bitrate=N/A speed=  20x    frame=17388 fps=481 q=-0.0 size=N/A time=00:12:05.22 bitrate=N/A speed=20.1x    frame=17666 fps=482 q=-0.0 size=N/A time=00:12:16.81 bitrate=N/A speed=20.1x    frame=17915 fps=482 q=-0.0 size=N/A time=00:12:27.20 bitrate=N/A speed=20.1x    frame=18163 fps=482 q=-0.0 size=N/A time=00:12:37.54 bitrate=N/A speed=20.1x    frame=18402 fps=482 q=-0.0 size=N/A time=00:12:47.51 bitrate=N/A speed=20.1x    frame=18585 fps=480 q=-0.0 size=N/A time=00:12:55.14 bitrate=N/A speed=  20x    frame=18825 fps=480 q=-0.0 size=N/A time=00:13:05.15 bitrate=N/A speed=  20x    frame=19098 fps=481 q=-0.0 size=N/A time=00:13:16.54 bitrate=N/A speed=20.1x    frame=19377 fps=481 q=-0.0 size=N/A time=00:13:28.18 bitrate=N/A speed=20.1x    frame=19649 fps=482 q=-0.0 size=N/A time=00:13:39.52 bitrate=N/A speed=20.1x    frame=19911 fps=482 q=-0.0 size=N/A time=00:13:50.45 bitrate=N/A speed=20.1x    frame=20160 fps=482 q=-0.0 size=N/A time=00:14:00.84 bitrate=N/A speed=20.1x    frame=20414 fps=483 q=-0.0 size=N/A time=00:14:11.43 bitrate=N/A speed=20.1x    frame=20666 fps=483 q=-0.0 size=N/A time=00:14:21.94 bitrate=N/A speed=20.1x    frame=20931 fps=483 q=-0.0 size=N/A time=00:14:32.99 bitrate=N/A speed=20.1x    frame=21185 fps=483 q=-0.0 size=N/A time=00:14:43.59 bitrate=N/A speed=20.1x    frame=21444 fps=483 q=-0.0 size=N/A time=00:14:54.39 bitrate=N/A speed=20.2x    frame=21691 fps=483 q=-0.0 size=N/A time=00:15:04.69 bitrate=N/A speed=20.2x    frame=21910 fps=483 q=-0.0 size=N/A time=00:15:13.82 bitrate=N/A speed=20.1x    frame=22150 fps=482 q=-0.0 size=N/A time=00:15:23.83 bitrate=N/A speed=20.1x    frame=22414 fps=483 q=-0.0 size=N/A time=00:15:34.85 bitrate=N/A speed=20.1x    frame=22675 fps=483 q=-0.0 size=N/A time=00:15:45.73 bitrate=N/A speed=20.1x    frame=22915 fps=483 q=-0.0 size=N/A time=00:15:55.74 bitrate=N/A speed=20.1x    frame=23155 fps=483 q=-0.0 size=N/A time=00:16:05.75 bitrate=N/A speed=20.1x    frame=23410 fps=483 q=-0.0 size=N/A time=00:16:16.39 bitrate=N/A speed=20.1x    frame=23673 fps=483 q=-0.0 size=N/A time=00:16:27.36 bitrate=N/A speed=20.1x    frame=23948 fps=483 q=-0.0 size=N/A time=00:16:38.83 bitrate=N/A speed=20.2x    frame=24216 fps=484 q=-0.0 size=N/A time=00:16:50.00 bitrate=N/A speed=20.2x    frame=24492 fps=484 q=-0.0 size=N/A time=00:17:01.52 bitrate=N/A speed=20.2x    frame=24749 fps=485 q=-0.0 size=N/A time=00:17:12.23 bitrate=N/A speed=20.2x    frame=25006 fps=485 q=-0.0 size=N/A time=00:17:22.95 bitrate=N/A speed=20.2x    frame=25247 fps=485 q=-0.0 size=N/A time=00:17:33.01 bitrate=N/A speed=20.2x    frame=25522 fps=485 q=-0.0 size=N/A time=00:17:44.48 bitrate=N/A speed=20.2x    frame=25735 fps=484 q=-0.0 size=N/A time=00:17:53.36 bitrate=N/A speed=20.2x    frame=25976 fps=484 q=-0.0 size=N/A time=00:18:03.41 bitrate=N/A speed=20.2x    frame=26227 fps=484 q=-0.0 size=N/A time=00:18:13.88 bitrate=N/A speed=20.2x    frame=26443 fps=484 q=-0.0 size=N/A time=00:18:22.89 bitrate=N/A speed=20.2x    frame=26708 fps=484 q=-0.0 size=N/A time=00:18:33.94 bitrate=N/A speed=20.2x    frame=26973 fps=484 q=-0.0 size=N/A time=00:18:44.99 bitrate=N/A speed=20.2x    frame=27245 fps=484 q=-0.0 size=N/A time=00:18:56.34 bitrate=N/A speed=20.2x    frame=27515 fps=485 q=-0.0 size=N/A time=00:19:07.60 bitrate=N/A speed=20.2x    frame=27799 fps=485 q=-0.0 size=N/A time=00:19:19.44 bitrate=N/A speed=20.2x    frame=28070 fps=486 q=-0.0 size=N/A time=00:19:30.75 bitrate=N/A speed=20.3x    frame=28302 fps=485 q=-0.0 size=N/A time=00:19:40.42 bitrate=N/A speed=20.2x    frame=28554 fps=485 q=-0.0 size=N/A time=00:19:50.93 bitrate=N/A speed=20.2x    frame=28827 fps=486 q=-0.0 size=N/A time=00:20:02.32 bitrate=N/A speed=20.3x    frame=29085 fps=486 q=-0.0 size=N/A time=00:20:13.08 bitrate=N/A speed=20.3x    frame=29323 fps=486 q=-0.0 size=N/A time=00:20:23.01 bitrate=N/A speed=20.3x    frame=29571 fps=486 q=-0.0 size=N/A time=00:20:33.35 bitrate=N/A speed=20.3x    frame=29831 fps=486 q=-0.0 size=N/A time=00:20:44.20 bitrate=N/A speed=20.3x    frame=30083 fps=486 q=-0.0 size=N/A time=00:20:54.71 bitrate=N/A speed=20.3x    frame=30316 fps=486 q=-0.0 size=N/A time=00:21:04.42 bitrate=N/A speed=20.3x    frame=30517 fps=485 q=-0.0 size=N/A time=00:21:12.81 bitrate=N/A speed=20.2x    frame=30750 fps=485 q=-0.0 size=N/A time=00:21:22.53 bitrate=N/A speed=20.2x    frame=31028 fps=485 q=-0.0 size=N/A time=00:21:34.12 bitrate=N/A speed=20.2x    frame=31293 fps=485 q=-0.0 size=N/A time=00:21:45.17 bitrate=N/A speed=20.2x    frame=31562 fps=485 q=-0.0 size=N/A time=00:21:56.39 bitrate=N/A speed=20.2x    frame=31847 fps=486 q=-0.0 size=N/A time=00:22:08.28 bitrate=N/A speed=20.3x    frame=32075 fps=486 q=-0.0 size=N/A time=00:22:17.79 bitrate=N/A speed=20.3x    frame=32320 fps=486 q=-0.0 size=N/A time=00:22:28.01 bitrate=N/A speed=20.3x    frame=32564 fps=485 q=-0.0 size=N/A time=00:22:38.19 bitrate=N/A speed=20.2x    frame=32767 fps=485 q=-0.0 size=N/A time=00:22:46.65 bitrate=N/A speed=20.2x    frame=32990 fps=484 q=-0.0 size=N/A time=00:22:55.95 bitrate=N/A speed=20.2x    frame=33199 fps=484 q=-0.0 size=N/A time=00:23:04.67 bitrate=N/A speed=20.2x    frame=33345 fps=482 q=-0.0 size=N/A time=00:23:10.76 bitrate=N/A speed=20.1x    frame=33531 fps=481 q=-0.0 size=N/A time=00:23:18.52 bitrate=N/A speed=20.1x    frame=33705 fps=480 q=-0.0 size=N/A time=00:23:25.77 bitrate=N/A speed=  20x    frame=33882 fps=479 q=-0.0 size=N/A time=00:23:33.16 bitrate=N/A speed=  20x    frame=34127 fps=479 q=-0.0 size=N/A time=00:23:43.38 bitrate=N/A speed=  20x    [Parsed_psnr_10 @ 000002462620f200] PSNR y:49.439910 u:51.368034 v:50.516000 average:49.879812 min:37.673994 max:inf
[out#0/null @ 00000246194ff080] video:14696KiB audio:267516KiB subtitle:0KiB other streams:0KiB global headers:0KiB muxing overhead: unknown
frame=34202 fps=479 q=-0.0 Lsize=N/A time=00:23:46.50 bitrate=N/A speed=  20x    
